<svg xmlns="http://www.w3.org/2000/svg" xmlns:xlink="http://www.w3.org/1999/xlink" viewBox="0 0 243 173.1" enable-background="new 0 0 243 173.1"><g><polygon fill="#052E47" points="121.9,2.1 83.1,39.3 121.9,67.2 131.8,33.5"/><defs><polygon id="a" points="122,2.1 161,39.3 122,67.2"/></defs><clipPath id="b"><use xlink:href="#a" overflow="visible"/></clipPath><polygon clip-path="url(#b)" fill="#3FA9F5" points="121.4,27.5 121.5,0 139.1,2.3 159.6,9.3"/><polyline clip-path="url(#b)" fill="#0F8AD3" points="122,50.1 122,27.3 174.3,0.9 160.4,27.7 122.3,48.8"/><polygon clip-path="url(#b)" fill="#095886" points="122,67.2 122,47.4 174.4,16 161.2,39.3"/><g opacity=".7"><defs><polygon id="c" opacity=".7" points="122,2.1 83,39.3 122,67.2"/></defs><clipPath id="d"><use xlink:href="#c" overflow="visible"/></clipPath><polygon clip-path="url(#d)" fill="#3FA9F5" points="122.8,27.5 122.9,0 105.5,2.3 85,9.3"/><polyline clip-path="url(#d)" fill="#0F8AD3" points="122,50.1 122,27.3 70.5,0.9 84.8,27.7 122.3,48.8"/><polygon clip-path="url(#d)" fill="#095886" points="122,67.2 122,47.4 70.4,16 83.1,39.3"/></g><linearGradient id="e" gradientUnits="userSpaceOnUse" x1="126.267" y1="5.106" x2="102.652" y2="53.151"><stop offset="0" stop-color="#fff"/><stop offset=".701" stop-color="#fff" stop-opacity="0"/></linearGradient><polygon opacity=".71" fill="url(#e)" points="122,2.1 83.2,39.3 122,67.2"/><linearGradient id="f" gradientUnits="userSpaceOnUse" x1="118.267" y1="4.383" x2="141.882" y2="54.056"><stop offset="0" stop-color="#fff"/><stop offset=".701" stop-color="#fff" stop-opacity="0"/></linearGradient><polygon opacity=".71" fill="url(#f)" points="122,2.1 161,39.3 122,67.2"/><linearGradient id="g" gradientUnits="userSpaceOnUse" x1="126.267" y1="5.106" x2="102.652" y2="53.151"><stop offset="0" stop-color="#fff"/><stop offset=".5" stop-color="#fff" stop-opacity="0"/></linearGradient><polygon opacity=".68" fill="url(#g)" points="122,2.1 83.2,39.3 122,67.2"/><linearGradient id="h" gradientUnits="userSpaceOnUse" x1="118.267" y1="4.383" x2="141.882" y2="54.056"><stop offset="0" stop-color="#fff"/><stop offset=".5" stop-color="#fff" stop-opacity="0"/></linearGradient><polygon opacity=".68" fill="url(#h)" points="122,2.1 161,39.3 122,67.2"/><g fill-rule="evenodd" clip-rule="evenodd" fill="#0E82C6"><path d="M101 109c0 5.4-1.9 10.7-8.1 10.7-6 0-8-5.2-8-10.7v-16.8h-6.4v16.8c0 8.5 3.9 16.4 14.4 16.4 10.1 0 14.4-7.4 14.4-16.4v-16.8h-6.3v16.8zM66.6 108.7c0-8.3-6.2-16.8-15.5-16.8-9 0-15.7 7.9-15.7 16.7 0 8.4 6.3 16.6 15.6 16.7 2.2 0 4.3-.5 6.2-1.3l-4.1-4.6c-.6.2-1.3.2-2 .2-5.8 0-9.2-5.3-9.2-11 0-5.4 3.3-11 9.2-11 5.7 0 9.2 5.3 9.2 11 0 2.3-.6 4.6-1.7 6.6l-2-2.3h-6.1l3.5 3.9 7.4 8.3h6.1l-4.7-5.2c2.3-3.1 3.8-7 3.8-11.2z"/><polygon points="8.3,110.9 22.2,110.9 22.2,105.7 8.3,105.7 8.3,97.8 24.4,97.8 24.4,92.2 1.9,92.2 1.9,125.1 24.8,125.1 24.8,119.5 8.3,119.5"/><path d="M186.1 92.2l-13 32.9h6.8l3-8.2h11.5l3 8.2h6.8l-12.9-32.9h-5.2zm2.6 6.9l4.2 12.2h-8.5l4.3-12.2zM234.2 112.7c3.6-1.5 5.9-5.4 5.9-9.6 0-5.4-4.4-10.9-10.5-10.9h-14.6v32.9h6.4v-11h6.3l6.9 11h7.2l-7.6-12.4zm-4.7-4.3h-8v-10.6h7.7c2.3 0 4.4 2.3 4.4 5.3.1 3-1.7 5.3-4.1 5.3z"/><polygon points="148.1,92.2 141.8,92.2 141.8,125.1 164.9,125.1 164.9,119.5 148.1,119.5"/><rect x="121.1" y="92.2" width="6.4" height="32.9"/><rect x="6.5" y="105.5" width="15.7" height="5.6"/></g><g fill="#fff"><path d="M18.9 144.7h-6.9v-4.7h19v4.7h-6.9v19.4h-5.3v-19.4zM28.9 155.8c0-1.3.2-2.5.7-3.6.5-1.1 1.1-2 2-2.7.8-.8 1.8-1.3 2.9-1.8 1.1-.4 2.3-.6 3.6-.6 1.3 0 2.5.2 3.6.6 1.1.4 2.1 1 2.9 1.8.8.8 1.5 1.7 2 2.7s.7 2.3.7 3.6-.2 2.5-.7 3.6c-.5 1.1-1.1 2-2 2.7-.8.8-1.8 1.3-2.9 1.8s-2.3.6-3.6.6c-1.3 0-2.5-.2-3.6-.6-1.1-.4-2.1-1-2.9-1.8-.8-.8-1.5-1.7-2-2.7-.5-1.1-.7-2.3-.7-3.6zm5.1 0c0 1.2.4 2.3 1.1 3 .7.8 1.7 1.2 3 1.2s2.3-.4 3-1.2c.7-.8 1.1-1.8 1.1-3s-.4-2.3-1.1-3-1.7-1.2-3-1.2-2.3.4-3 1.2c-.7.8-1.1 1.8-1.1 3zM50.7 147.6h4.7v2.2h.1c.2-.3.5-.6.8-.9s.7-.6 1.2-.8c.4-.2.9-.5 1.4-.6.5-.2 1.1-.2 1.7-.2 1.2 0 2.3.2 3.3.6 1 .4 1.9 1 2.6 1.8.7.8 1.3 1.7 1.6 2.7.4 1 .6 2.2.6 3.4 0 1.2-.2 2.3-.5 3.3-.4 1.1-.9 2-1.5 2.8-.6.8-1.4 1.5-2.4 2-.9.5-2 .7-3.2.7-1.1 0-2.1-.2-3-.5s-1.7-.9-2.3-1.7h-.1v9.5h-5.1v-24.3zm4.7 8.2c0 1.2.4 2.3 1.1 3 .7.8 1.7 1.2 3 1.2s2.3-.4 3-1.2c.7-.8 1.1-1.8 1.1-3s-.4-2.3-1.1-3-1.7-1.2-3-1.2-2.3.4-3 1.2-1.1 1.8-1.1 3zM76.6 158.7l9.4-8.4c.5-.4 1-.9 1.4-1.5s.7-1.2.7-1.9c0-.8-.3-1.5-.9-1.9-.6-.5-1.3-.7-2.1-.7-1 0-1.7.3-2.2.9-.5.6-.8 1.3-.9 2.2l-5.1-.4c.1-1.2.3-2.3.8-3.2.5-.9 1.1-1.7 1.8-2.3.7-.6 1.6-1.1 2.6-1.4 1-.3 2.1-.5 3.3-.5 1.1 0 2.1.2 3.1.5s1.8.8 2.5 1.4c.7.6 1.3 1.4 1.6 2.3.4.9.6 2 .6 3.2 0 .8-.1 1.5-.2 2.1-.2.6-.4 1.2-.7 1.7-.3.5-.6 1-1 1.4-.4.4-.8.9-1.3 1.3l-7.3 6.3h10.7v4.5h-16.8v-5.6zM112.7 144.5h-9.6l-.1 3.7c.5-.2 1.2-.3 2.1-.3 1.2 0 2.3.2 3.4.5 1 .4 1.9.9 2.6 1.6.7.7 1.3 1.5 1.7 2.5.4 1 .6 2.1.6 3.3 0 1.4-.2 2.6-.7 3.6-.5 1.1-1.1 2-1.9 2.7s-1.8 1.3-2.9 1.7-2.3.6-3.7.6c-2.1 0-3.8-.5-5.2-1.5-1.4-1-2.4-2.6-2.9-4.6l5.3-1.2c.1.9.5 1.6 1.1 2.1.6.5 1.3.8 2.2.8 1.1 0 2-.3 2.6-1 .6-.7 1-1.5 1-2.6 0-.8-.2-1.4-.5-2-.3-.5-.8-.9-1.3-1.2-.5-.3-1.1-.5-1.8-.6-.7-.1-1.3-.2-2-.2-.8 0-1.7.1-2.5.2-.9.2-1.7.4-2.5.6l.3-13.3h14.6v4.6zM134.7 145.9c-.4-.5-1-.9-1.8-1.2-.7-.3-1.4-.4-2.1-.4-.4 0-.8 0-1.2.1-.4.1-.8.2-1.2.4-.4.2-.7.4-.9.8s-.3.7-.3 1.2c0 .7.3 1.3.8 1.7s1.2.7 2.1 1c.8.3 1.7.5 2.7.8 1 .3 1.8.7 2.7 1.2.8.5 1.5 1.2 2.1 2s.8 2 .8 3.4c0 1.3-.2 2.5-.7 3.5-.5 1-1.2 1.8-2 2.5-.9.7-1.8 1.1-3 1.5s-2.3.5-3.6.5c-1.6 0-3-.2-4.4-.7-1.3-.5-2.6-1.2-3.7-2.3l3.8-4.1c.5.7 1.2 1.3 2.1 1.7.8.4 1.7.6 2.6.6.4 0 .9-.1 1.3-.2s.8-.3 1.2-.5c.4-.2.6-.5.9-.8.2-.3.3-.7.3-1.1 0-.7-.3-1.3-.8-1.7-.6-.4-1.3-.8-2.1-1.1-.8-.3-1.7-.6-2.7-.9s-1.9-.7-2.7-1.2c-.8-.5-1.5-1.2-2.1-2-.6-.8-.8-1.9-.8-3.2 0-1.3.3-2.4.8-3.4s1.2-1.8 2-2.4 1.8-1.2 2.9-1.5c1.1-.3 2.3-.5 3.4-.5 1.4 0 2.7.2 3.9.6 1.3.4 2.4 1 3.4 1.9l-3.7 3.8zM156.9 164.1h-4.9v-2.2h-.1c-.2.3-.4.6-.7 1-.3.3-.6.6-1 .8-.4.2-.9.5-1.4.6-.5.2-1.1.2-1.7.2-1.3 0-2.3-.2-3.1-.6-.8-.4-1.4-.9-1.9-1.6-.4-.7-.7-1.5-.9-2.5-.1-1-.2-2-.2-3.1v-9.1h5.1v8.1c0 .5 0 1 .1 1.5 0 .5.1 1 .3 1.4.2.4.4.8.8 1.1.4.3.9.4 1.5.4.7 0 1.2-.1 1.6-.4.4-.2.7-.6.9-1 .2-.4.4-.8.4-1.3.1-.5.1-1 .1-1.6v-8.2h5.1v16.5zM160.5 147.6h5.1v2.7h.1c.5-1 1.2-1.8 1.9-2.3.7-.5 1.7-.8 2.8-.8h.9c.3 0 .6.1.8.1v4.7l-1.1-.3c-.4-.1-.7-.1-1.1-.1-1 0-1.7.1-2.3.4-.6.3-1 .7-1.3 1.1-.3.5-.5 1.1-.6 1.8-.1.7-.1 1.4-.1 2.2v6.9h-5.1v-16.4zM174 147.6h5.5l4.2 11.2h.1l3.9-11.2h5.1l-6.5 16.5h-5.4l-6.9-16.5zM210.3 161.2c-.8 1-1.8 1.8-3.1 2.4-1.2.6-2.5.9-3.9.9-1.3 0-2.5-.2-3.6-.6-1.1-.4-2.1-1-2.9-1.8-.8-.8-1.5-1.7-2-2.7-.5-1.1-.7-2.3-.7-3.6s.2-2.5.7-3.6 1.1-2 2-2.7c.8-.8 1.8-1.3 2.9-1.8 1.1-.4 2.3-.6 3.6-.6 1.2 0 2.2.2 3.2.6 1 .4 1.8 1 2.4 1.8.7.8 1.2 1.7 1.5 2.7.4 1.1.5 2.3.5 3.6v1.6h-11.8c.2 1 .6 1.8 1.3 2.3.7.6 1.5.9 2.5.9.8 0 1.5-.2 2.1-.6s1.1-.9 1.5-1.4l3.8 2.6zm-4.3-7.3c0-.9-.3-1.6-.9-2.2-.6-.6-1.3-.9-2.3-.9-.6 0-1.1.1-1.5.3-.4.2-.8.4-1.1.7-.3.3-.5.6-.7 1s-.3.8-.3 1.2h6.8zM223 166.8c-.3.9-.7 1.7-1 2.3-.3.7-.7 1.3-1.2 1.7-.5.5-1.1.8-1.9 1.1-.7.2-1.7.4-3 .4s-2.6-.2-3.8-.6l.7-4.2c.8.3 1.6.5 2.4.5.6 0 1-.1 1.4-.2.4-.1.7-.3.9-.5.2-.2.4-.5.6-.9.2-.3.3-.7.5-1.2l.4-1-7.2-16.7h5.5l4.2 10.9h.1l3.6-10.9h5.2l-7.4 19.3z"/></g></g></svg>