<svg xmlns="http://www.w3.org/2000/svg" xmlns:xlink="http://www.w3.org/1999/xlink" viewBox="0 0 242 162" enable-background="new 0 0 242 162"><g><g><g><polygon fill="#052E47" points="120.9,0.9 82.1,37.5 120.9,64.9 130.8,31.8"/><defs><polygon id="a" points="121,0.9 160,37.5 121,64.9"/></defs><clipPath id="b"><use xlink:href="#a" overflow="visible"/></clipPath><polygon clip-path="url(#b)" fill="#3FA9F5" points="120.4,26 120.5,-1.1 138.1,1.2 158.6,8"/><polyline clip-path="url(#b)" fill="#0F8AD3" points="121,48 121,25.7 173.3,-0.2 159.4,26.1 121.3,46.8"/><polygon clip-path="url(#b)" fill="#095886" points="121,64.9 121,45.5 173.4,14.7 160.2,37.5"/><g opacity=".7"><defs><polygon id="c" opacity=".7" points="121,0.9 82,37.5 121,64.9"/></defs><clipPath id="d"><use xlink:href="#c" overflow="visible"/></clipPath><polygon clip-path="url(#d)" fill="#3FA9F5" points="121.8,26 121.9,-1.1 104.5,1.2 84,8"/><polyline clip-path="url(#d)" fill="#0F8AD3" points="121,48 121,25.7 69.5,-0.2 83.8,26.1 121.3,46.8"/><polygon clip-path="url(#d)" fill="#095886" points="121,64.9 121,45.5 69.4,14.7 82.2,37.5"/></g><linearGradient id="e" gradientUnits="userSpaceOnUse" x1="124.918" y1="3.788" x2="101.718" y2="50.987"><stop offset="0" stop-color="#fff"/><stop offset=".701" stop-color="#fff" stop-opacity="0"/></linearGradient><polygon opacity=".71" fill="url(#e)" points="121,0.9 82.2,37.5 121,64.9"/><linearGradient id="f" gradientUnits="userSpaceOnUse" x1="117.612" y1="3.079" x2="140.812" y2="51.879"><stop offset="0" stop-color="#fff"/><stop offset=".701" stop-color="#fff" stop-opacity="0"/></linearGradient><polygon opacity=".71" fill="url(#f)" points="121,0.9 160,37.5 121,64.9"/><linearGradient id="g" gradientUnits="userSpaceOnUse" x1="124.918" y1="3.788" x2="101.718" y2="50.987"><stop offset="0" stop-color="#fff"/><stop offset=".5" stop-color="#fff" stop-opacity="0"/></linearGradient><polygon opacity=".68" fill="url(#g)" points="121,0.9 82.2,37.5 121,64.9"/><linearGradient id="h" gradientUnits="userSpaceOnUse" x1="117.612" y1="3.079" x2="140.812" y2="51.879"><stop offset="0" stop-color="#fff"/><stop offset=".5" stop-color="#fff" stop-opacity="0"/></linearGradient><polygon opacity=".68" fill="url(#h)" points="121,0.9 160,37.5 121,64.9"/></g><g><g fill-rule="evenodd" clip-rule="evenodd" fill="#0E82C6"><path d="M100 107.3c0 5.4-1.9 10.7-8.1 10.7-6 0-8-5.2-8-10.7v-16.7h-6.4v16.7c0 8.5 3.9 16.3 14.4 16.3 10.1 0 14.4-7.3 14.4-16.3v-16.7h-6.3v16.7zM65.6 107.1c0-8.3-6.2-16.7-15.5-16.7-9 0-15.7 7.9-15.7 16.6 0 8.4 6.3 16.6 15.6 16.6 2.2 0 4.3-.5 6.2-1.3l-4.1-4.6c-.6.2-1.3.2-2 .2-5.8 0-9.2-5.3-9.2-11 0-5.4 3.3-11 9.2-11 5.7 0 9.2 5.3 9.2 11 0 2.3-.6 4.6-1.7 6.6l-2-2.3h-6.1l3.5 3.9 7.4 8.3h6.1l-4.7-5.2c2.3-3 3.8-7 3.8-11.1z"/><polygon points="7.3,109.2 21.2,109.2 21.2,104.1 7.3,104.1 7.3,96.2 23.3,96.2 23.3,90.6 0.9,90.6 0.9,123.4 23.8,123.4 23.8,117.8 7.3,117.8"/><path d="M185.1 90.6l-13 32.8h6.8l3-8.2h11.5l3 8.2h6.8l-12.9-32.8h-5.2zm2.6 6.8l4.2 12.2h-8.5l4.3-12.2zM233.2 111c3.6-1.5 5.9-5.4 5.9-9.6 0-5.4-4.4-10.9-10.5-10.9h-14.6v32.8h6.4v-11h6.3l6.9 11h7.2l-7.6-12.3zm-4.7-4.2h-8v-10.6h7.7c2.3 0 4.4 2.3 4.4 5.3.1 2.9-1.7 5.3-4.1 5.3z"/><polygon points="147.1,90.6 140.7,90.6 140.7,123.4 163.9,123.4 163.9,117.8 147.1,117.8"/><rect x="120.1" y="90.6" width="6.4" height="32.8"/><rect x="5.5" y="103.9" width="15.7" height="5.6"/></g><g fill="#fff"><path d="M47.4 137h5.2v23.8h-5.2v-23.8zM59.4 137h7.1l10.1 16.5h.1v-16.5h5.3v23.8h-6.9l-10.4-16.9h-.1v16.9h-5.2v-23.8zM100.6 142.8c-.4-.5-1-.9-1.7-1.2-.7-.3-1.4-.4-2.1-.4-.4 0-.8 0-1.2.1-.4.1-.8.2-1.1.4-.4.2-.7.4-.9.8s-.3.7-.3 1.1c0 .7.3 1.3.8 1.6.5.4 1.2.7 2 1 .8.3 1.7.5 2.6.8.9.3 1.8.6 2.6 1.1.8.5 1.5 1.2 2 2s.8 1.9.8 3.3c0 1.3-.2 2.5-.7 3.5-.5 1-1.2 1.8-2 2.4-.8.6-1.8 1.1-2.9 1.4-1.1.3-2.3.5-3.5.5-1.5 0-3-.2-4.3-.7-1.3-.5-2.6-1.2-3.7-2.3l3.7-4.1c.5.7 1.2 1.3 2 1.7.8.4 1.7.6 2.5.6.4 0 .9-.1 1.3-.2s.8-.3 1.2-.5c.3-.2.6-.5.8-.8.2-.3.3-.7.3-1.1 0-.7-.3-1.3-.8-1.7-.5-.4-1.2-.8-2.1-1.1-.8-.3-1.7-.6-2.7-.9-1-.3-1.9-.7-2.7-1.2-.8-.5-1.5-1.1-2.1-1.9-.5-.8-.8-1.9-.8-3.2 0-1.3.3-2.4.8-3.4s1.2-1.8 2-2.4c.8-.6 1.8-1.1 2.9-1.5 1.1-.3 2.2-.5 3.4-.5 1.3 0 2.6.2 3.9.6 1.3.4 2.4 1 3.4 1.9l-3.4 4.3zM110.1 137h5.2v23.8h-5.2v-23.8zM143.7 159c-1.5.8-3.2 1.4-4.8 1.7-1.7.4-3.4.5-5.1.5-1.9 0-3.6-.3-5.1-.9-1.6-.6-2.9-1.4-4.1-2.5-1.1-1.1-2-2.4-2.7-3.9-.6-1.5-1-3.3-1-5.2 0-1.9.3-3.6 1-5.2.6-1.5 1.5-2.9 2.7-3.9 1.1-1.1 2.5-1.9 4.1-2.5 1.6-.6 3.3-.9 5.1-.9 1.9 0 3.7.2 5.3.7 1.6.5 3 1.2 4.2 2.4l-3.7 4c-.7-.7-1.5-1.3-2.4-1.7-.9-.4-2-.6-3.4-.6-1.1 0-2.1.2-3 .6-.9.4-1.7.9-2.3 1.6-.7.7-1.1 1.5-1.5 2.4-.3.9-.5 2-.5 3.1s.2 2.1.5 3.1c.3.9.8 1.7 1.5 2.4.6.7 1.4 1.2 2.3 1.6.9.4 1.9.6 3 .6s2.1-.1 3-.4c.8-.3 1.5-.5 2-.8v-3.9h-4.3v-4.8h9.3v12.5zM150.3 137h5.2v8.9h10.2v-8.9h5.2v23.8h-5.2v-10.3h-10.2v10.3h-5.2v-23.8zM182.4 141.6h-6.8v-4.6h18.8v4.6h-6.8v19.1h-5.2v-19.1z"/></g></g></g></g></svg>