<svg xmlns="http://www.w3.org/2000/svg" xmlns:xlink="http://www.w3.org/1999/xlink" viewBox="0 0 243 166.1" enable-background="new 0 0 243 166.1"><g><polygon fill="#052E47" points="121.9,2.1 83.1,39.3 121.9,67.2 131.8,33.5"/><defs><polygon id="a" points="122,2.1 161,39.3 122,67.2"/></defs><clipPath id="b"><use xlink:href="#a" overflow="visible"/></clipPath><polygon clip-path="url(#b)" fill="#3FA9F5" points="121.4,27.5 121.5,0 139.1,2.3 159.6,9.3"/><polyline clip-path="url(#b)" fill="#0F8AD3" points="122,50.1 122,27.3 174.3,0.9 160.4,27.7 122.3,48.8"/><polygon clip-path="url(#b)" fill="#095886" points="122,67.2 122,47.4 174.4,16 161.2,39.3"/><g opacity=".7"><defs><polygon id="c" opacity=".7" points="122,2.1 83,39.3 122,67.2"/></defs><clipPath id="d"><use xlink:href="#c" overflow="visible"/></clipPath><polygon clip-path="url(#d)" fill="#3FA9F5" points="122.8,27.5 122.9,0 105.5,2.3 85,9.3"/><polyline clip-path="url(#d)" fill="#0F8AD3" points="122,50.1 122,27.3 70.5,0.9 84.8,27.7 122.3,48.8"/><polygon clip-path="url(#d)" fill="#095886" points="122,67.2 122,47.4 70.4,16 83.1,39.3"/></g><linearGradient id="e" gradientUnits="userSpaceOnUse" x1="126.267" y1="5.106" x2="102.652" y2="53.151"><stop offset="0" stop-color="#fff"/><stop offset=".701" stop-color="#fff" stop-opacity="0"/></linearGradient><polygon opacity=".71" fill="url(#e)" points="122,2.1 83.2,39.3 122,67.2"/><linearGradient id="f" gradientUnits="userSpaceOnUse" x1="118.267" y1="4.383" x2="141.882" y2="54.056"><stop offset="0" stop-color="#fff"/><stop offset=".701" stop-color="#fff" stop-opacity="0"/></linearGradient><polygon opacity=".71" fill="url(#f)" points="122,2.1 161,39.3 122,67.2"/><linearGradient id="g" gradientUnits="userSpaceOnUse" x1="126.267" y1="5.106" x2="102.652" y2="53.151"><stop offset="0" stop-color="#fff"/><stop offset=".5" stop-color="#fff" stop-opacity="0"/></linearGradient><polygon opacity=".68" fill="url(#g)" points="122,2.1 83.2,39.3 122,67.2"/><linearGradient id="h" gradientUnits="userSpaceOnUse" x1="118.267" y1="4.383" x2="141.882" y2="54.056"><stop offset="0" stop-color="#fff"/><stop offset=".5" stop-color="#fff" stop-opacity="0"/></linearGradient><polygon opacity=".68" fill="url(#h)" points="122,2.1 161,39.3 122,67.2"/><g fill-rule="evenodd" clip-rule="evenodd" fill="#0E82C6"><path d="M101 109c0 5.4-1.9 10.7-8.1 10.7-6 0-8-5.2-8-10.7v-16.8h-6.4v16.8c0 8.5 3.9 16.4 14.4 16.4 10.1 0 14.4-7.4 14.4-16.4v-16.8h-6.3v16.8zM66.6 108.7c0-8.3-6.2-16.8-15.5-16.8-9 0-15.7 7.9-15.7 16.7 0 8.4 6.3 16.6 15.6 16.7 2.2 0 4.3-.5 6.2-1.3l-4.1-4.6c-.6.2-1.3.2-2 .2-5.8 0-9.2-5.3-9.2-11 0-5.4 3.3-11 9.2-11 5.7 0 9.2 5.3 9.2 11 0 2.3-.6 4.6-1.7 6.6l-2-2.3h-6.1l3.5 3.9 7.4 8.3h6.1l-4.7-5.2c2.3-3.1 3.8-7 3.8-11.2z"/><polygon points="8.3,110.9 22.2,110.9 22.2,105.7 8.3,105.7 8.3,97.8 24.4,97.8 24.4,92.2 1.9,92.2 1.9,125.1 24.8,125.1 24.8,119.5 8.3,119.5"/><path d="M186.1 92.2l-13 32.9h6.8l3-8.2h11.5l3 8.2h6.8l-12.9-32.9h-5.2zm2.6 6.9l4.2 12.2h-8.5l4.3-12.2zM234.2 112.7c3.6-1.5 5.9-5.4 5.9-9.6 0-5.4-4.4-10.9-10.5-10.9h-14.6v32.9h6.4v-11h6.3l6.9 11h7.2l-7.6-12.4zm-4.7-4.3h-8v-10.6h7.7c2.3 0 4.4 2.3 4.4 5.3.1 3-1.7 5.3-4.1 5.3z"/><polygon points="148.1,92.2 141.8,92.2 141.8,125.1 164.9,125.1 164.9,119.5 148.1,119.5"/><rect x="121.1" y="92.2" width="6.4" height="32.9"/><rect x="6.5" y="105.5" width="15.7" height="5.6"/></g><g fill="#fff"><path d="M48.4 140.2h5.2v23.8h-5.2v-23.8zM60.4 140.2h7.1l10.1 16.5h.1v-16.5h5.3v23.8h-6.9l-10.4-16.9h-.1v16.9h-5.2v-23.8zM101.6 146c-.4-.5-1-.9-1.7-1.2-.7-.3-1.4-.4-2.1-.4-.4 0-.8 0-1.2.1-.4.1-.8.2-1.1.4-.4.2-.7.4-.9.8-.2.3-.3.7-.3 1.1 0 .7.3 1.3.8 1.6.5.4 1.2.7 2 1 .8.3 1.7.5 2.6.8.9.3 1.8.7 2.6 1.1.8.5 1.5 1.2 2 2s.8 1.9.8 3.3c0 1.3-.2 2.5-.7 3.5-.5 1-1.2 1.8-2 2.5s-1.8 1.1-2.9 1.4c-1.1.3-2.3.5-3.5.5-1.5 0-3-.2-4.3-.7-1.3-.5-2.6-1.2-3.7-2.3l3.7-4.1c.5.7 1.2 1.3 2 1.7s1.7.6 2.5.6c.4 0 .9-.1 1.3-.2s.8-.3 1.2-.5c.3-.2.6-.5.8-.8.2-.3.3-.7.3-1.1 0-.7-.3-1.3-.8-1.7-.5-.4-1.2-.8-2.1-1.1-.8-.3-1.7-.6-2.7-.9-1-.3-1.9-.7-2.7-1.2-.8-.5-1.5-1.1-2.1-1.9-.5-.8-.8-1.9-.8-3.2 0-1.3.3-2.4.8-3.4s1.2-1.8 2-2.4c.8-.7 1.8-1.1 2.9-1.5 1.1-.3 2.2-.5 3.4-.5 1.3 0 2.6.2 3.9.6 1.3.4 2.4 1 3.4 1.9l-3.4 4.2zM111.1 140.2h5.2v23.8h-5.2v-23.8zM144.7 162.3c-1.5.8-3.2 1.4-4.8 1.7s-3.4.5-5.1.5c-1.9 0-3.6-.3-5.1-.9-1.6-.6-2.9-1.4-4.1-2.5-1.1-1.1-2-2.4-2.7-4s-1-3.3-1-5.2c0-1.9.3-3.6 1-5.2.6-1.5 1.5-2.9 2.7-4 1.1-1.1 2.5-1.9 4.1-2.5 1.6-.6 3.3-.9 5.1-.9 1.9 0 3.7.2 5.3.7 1.6.5 3 1.3 4.2 2.4l-3.7 4c-.7-.7-1.5-1.3-2.4-1.7-.9-.4-2-.6-3.4-.6-1.1 0-2.1.2-3 .6-.9.4-1.7.9-2.3 1.6-.7.7-1.1 1.5-1.5 2.4-.3.9-.5 2-.5 3.1s.2 2.1.5 3.1c.3.9.8 1.7 1.5 2.4.6.7 1.4 1.2 2.3 1.6.9.4 1.9.6 3 .6s2.1-.1 3-.4c.8-.3 1.5-.5 2-.8v-3.9h-4.3v-4.8h9.3v12.7zM151.3 140.2h5.2v8.9h10.2v-8.9h5.2v23.8h-5.2v-10.3h-10.2v10.3h-5.2v-23.8zM183.4 144.8h-6.8v-4.6h18.8v4.6h-6.8v19.2h-5.2v-19.2z"/></g></g></svg>