<svg xmlns="http://www.w3.org/2000/svg" xmlns:xlink="http://www.w3.org/1999/xlink" viewBox="0 0 242 126.1" enable-background="new 0 0 242 126.1"><g><g><g><polygon fill="#052E47" points="120.9,2 82.1,38.6 120.9,66 130.8,32.9"/><defs><polygon id="a" points="121,2 160,38.6 121,66"/></defs><clipPath id="b"><use xlink:href="#a" overflow="visible"/></clipPath><polygon clip-path="url(#b)" fill="#3FA9F5" points="120.4,27.1 120.5,0 138.1,2.3 158.6,9.1"/><polyline clip-path="url(#b)" fill="#0F8AD3" points="121,49.1 121,26.8 173.3,0.9 159.4,27.2 121.3,47.8"/><polygon clip-path="url(#b)" fill="#095886" points="121,66 121,46.6 173.4,15.7 160.2,38.6"/><g opacity=".7"><defs><polygon id="c" opacity=".7" points="121,2 82,38.6 121,66"/></defs><clipPath id="d"><use xlink:href="#c" overflow="visible"/></clipPath><polygon clip-path="url(#d)" fill="#3FA9F5" points="121.8,27 121.9,0 104.5,2.3 84,9.1"/><polyline clip-path="url(#d)" fill="#0F8AD3" points="121,49.1 121,26.8 69.5,0.9 83.8,27.2 121.3,47.8"/><polygon clip-path="url(#d)" fill="#095886" points="121,66 121,46.6 69.4,15.7 82.2,38.6"/></g><linearGradient id="e" gradientUnits="userSpaceOnUse" x1="124.918" y1="4.882" x2="101.718" y2="52.082"><stop offset="0" stop-color="#fff"/><stop offset=".701" stop-color="#fff" stop-opacity="0"/></linearGradient><polygon opacity=".71" fill="url(#e)" points="121,2 82.2,38.6 121,66"/><linearGradient id="f" gradientUnits="userSpaceOnUse" x1="117.612" y1="4.173" x2="140.812" y2="52.973"><stop offset="0" stop-color="#fff"/><stop offset=".701" stop-color="#fff" stop-opacity="0"/></linearGradient><polygon opacity=".71" fill="url(#f)" points="121,2 160,38.6 121,66"/><linearGradient id="g" gradientUnits="userSpaceOnUse" x1="124.918" y1="4.882" x2="101.718" y2="52.082"><stop offset="0" stop-color="#fff"/><stop offset=".5" stop-color="#fff" stop-opacity="0"/></linearGradient><polygon opacity=".68" fill="url(#g)" points="121,2 82.2,38.6 121,66"/><linearGradient id="h" gradientUnits="userSpaceOnUse" x1="117.612" y1="4.173" x2="140.812" y2="52.973"><stop offset="0" stop-color="#fff"/><stop offset=".5" stop-color="#fff" stop-opacity="0"/></linearGradient><polygon opacity=".68" fill="url(#h)" points="121,2 160,38.6 121,66"/></g><g fill-rule="evenodd" clip-rule="evenodd" fill="#0E82C6"><path d="M100 108.4c0 5.4-1.9 10.7-8.1 10.7-6 0-8-5.2-8-10.7v-16.7h-6.4v16.7c0 8.5 3.9 16.3 14.4 16.3 10.1 0 14.4-7.3 14.4-16.3v-16.7h-6.3v16.7zM65.6 108.2c0-8.3-6.2-16.7-15.5-16.7-9 0-15.7 7.9-15.7 16.6 0 8.4 6.3 16.6 15.6 16.6 2.2 0 4.3-.5 6.2-1.3l-4.1-4.6c-.6.2-1.3.2-2 .2-5.8 0-9.2-5.3-9.2-11 0-5.4 3.3-11 9.2-11 5.7 0 9.2 5.3 9.2 11 0 2.3-.6 4.6-1.7 6.6l-2-2.3h-6.1l3.5 3.9 7.4 8.3h6.1l-4.7-5.2c2.3-3.1 3.8-7 3.8-11.1z"/><polygon points="7.3,110.3 21.2,110.3 21.2,105.2 7.3,105.2 7.3,97.2 23.3,97.2 23.3,91.7 0.9,91.7 0.9,124.5 23.8,124.5 23.8,118.9 7.3,118.9"/><path d="M185.1 91.7l-13 32.8h6.8l3-8.2h11.5l3 8.2h6.8l-12.9-32.8h-5.2zm2.6 6.8l4.2 12.2h-8.5l4.3-12.2zM233.2 112.1c3.6-1.5 5.9-5.4 5.9-9.6 0-5.4-4.4-10.9-10.5-10.9h-14.6v32.8h6.4v-11h6.3l6.9 11h7.2l-7.6-12.3zm-4.7-4.2h-8v-10.7h7.7c2.3 0 4.4 2.3 4.4 5.3.1 3-1.7 5.4-4.1 5.4z"/><polygon points="147.1,91.7 140.7,91.7 140.7,124.5 163.9,124.5 163.9,118.9 147.1,118.9"/><rect x="120.1" y="91.7" width="6.4" height="32.8"/><rect x="5.5" y="105" width="15.7" height="5.6"/></g></g></g></svg>