<svg xmlns="http://www.w3.org/2000/svg" xmlns:xlink="http://www.w3.org/1999/xlink" viewBox="0 0 243 173.1" enable-background="new 0 0 243 173.1"><g><polygon fill="#052E47" points="121.9,2.1 83.1,39.3 121.9,67.2 131.8,33.5"/><defs><polygon id="a" points="122,2.1 161,39.3 122,67.2"/></defs><clipPath id="b"><use xlink:href="#a" overflow="visible"/></clipPath><polygon clip-path="url(#b)" fill="#3FA9F5" points="121.4,27.5 121.5,0 139.1,2.3 159.6,9.3"/><polyline clip-path="url(#b)" fill="#0F8AD3" points="122,50.1 122,27.3 174.3,0.9 160.4,27.7 122.3,48.8"/><polygon clip-path="url(#b)" fill="#095886" points="122,67.2 122,47.4 174.4,16 161.2,39.3"/><g opacity=".7"><defs><polygon id="c" opacity=".7" points="122,2.1 83,39.3 122,67.2"/></defs><clipPath id="d"><use xlink:href="#c" overflow="visible"/></clipPath><polygon clip-path="url(#d)" fill="#3FA9F5" points="122.8,27.5 122.9,0 105.5,2.3 85,9.3"/><polyline clip-path="url(#d)" fill="#0F8AD3" points="122,50.1 122,27.3 70.5,0.9 84.8,27.7 122.3,48.8"/><polygon clip-path="url(#d)" fill="#095886" points="122,67.2 122,47.4 70.4,16 83.2,39.3"/></g><linearGradient id="e" gradientUnits="userSpaceOnUse" x1="126.267" y1="5.106" x2="102.652" y2="53.151"><stop offset="0" stop-color="#fff"/><stop offset=".701" stop-color="#fff" stop-opacity="0"/></linearGradient><polygon opacity=".71" fill="url(#e)" points="122,2.1 83.2,39.3 122,67.2"/><linearGradient id="f" gradientUnits="userSpaceOnUse" x1="118.267" y1="4.383" x2="141.882" y2="54.056"><stop offset="0" stop-color="#fff"/><stop offset=".701" stop-color="#fff" stop-opacity="0"/></linearGradient><polygon opacity=".71" fill="url(#f)" points="122,2.1 161,39.3 122,67.2"/><linearGradient id="g" gradientUnits="userSpaceOnUse" x1="126.267" y1="5.106" x2="102.652" y2="53.151"><stop offset="0" stop-color="#fff"/><stop offset=".5" stop-color="#fff" stop-opacity="0"/></linearGradient><polygon opacity=".68" fill="url(#g)" points="122,2.1 83.2,39.3 122,67.2"/><linearGradient id="h" gradientUnits="userSpaceOnUse" x1="118.267" y1="4.383" x2="141.882" y2="54.056"><stop offset="0" stop-color="#fff"/><stop offset=".5" stop-color="#fff" stop-opacity="0"/></linearGradient><polygon opacity=".68" fill="url(#h)" points="122,2.1 161,39.3 122,67.2"/><g fill-rule="evenodd" clip-rule="evenodd" fill="#0E82C6"><path d="M101 109c0 5.4-1.9 10.7-8.1 10.7-6 0-8-5.2-8-10.7v-16.8h-6.4v16.8c0 8.5 3.9 16.4 14.4 16.4 10.1 0 14.4-7.4 14.4-16.4v-16.8h-6.3v16.8zM66.6 108.7c0-8.3-6.2-16.8-15.5-16.8-9 0-15.7 7.9-15.7 16.7 0 8.4 6.3 16.6 15.6 16.7 2.2 0 4.3-.5 6.2-1.3l-4.1-4.6c-.6.2-1.3.2-2 .2-5.8 0-9.2-5.3-9.2-11 0-5.4 3.3-11 9.2-11 5.7 0 9.2 5.3 9.2 11 0 2.3-.6 4.6-1.7 6.6l-2-2.3h-6.1l3.5 3.9 7.4 8.3h6.1l-4.7-5.2c2.3-3.1 3.8-7 3.8-11.2z"/><polygon points="8.3,110.9 22.2,110.9 22.2,105.7 8.3,105.7 8.3,97.8 24.3,97.8 24.3,92.2 1.9,92.2 1.9,125.1 24.8,125.1 24.8,119.5 8.3,119.5"/><path d="M186.1 92.2l-13 32.9h6.8l3-8.2h11.5l3 8.2h6.8l-12.9-32.9h-5.2zm2.6 6.9l4.2 12.2h-8.5l4.3-12.2zM234.2 112.7c3.6-1.5 5.9-5.4 5.9-9.6 0-5.4-4.4-10.9-10.5-10.9h-14.6v32.9h6.4v-11h6.3l6.9 11h7.2l-7.6-12.4zm-4.7-4.3h-8v-10.6h7.7c2.3 0 4.4 2.3 4.4 5.3.1 3-1.7 5.3-4.1 5.3z"/><polygon points="148.1,92.2 141.7,92.2 141.7,125.1 164.9,125.1 164.9,119.5 148.1,119.5"/><rect x="121.1" y="92.2" width="6.4" height="32.9"/><rect x="6.5" y="105.5" width="15.7" height="5.6"/></g><text transform="translate(16.793 164.075)"><tspan x="0" y="0" fill="#fff" font-family="'AvenirLTCom-Black'" font-size="34.659">BoardEdge</tspan><tspan x="183.6" y="-3.3" fill="#fff" font-family="'AvenirLTCom-Black'" font-size="26.689">™</tspan></text></g></svg>