<svg xmlns="http://www.w3.org/2000/svg" xmlns:xlink="http://www.w3.org/1999/xlink" viewBox="0 0 242 162" enable-background="new 0 0 242 162"><g><g><g><polygon fill="#052E47" points="120.9,0.9 82.1,37.5 120.9,64.9 130.8,31.8"/><defs><polygon id="a" points="121,0.9 160,37.5 121,64.9"/></defs><clipPath id="b"><use xlink:href="#a" overflow="visible"/></clipPath><polygon clip-path="url(#b)" fill="#3FA9F5" points="120.4,26 120.5,-1.1 138.1,1.2 158.6,8"/><polyline clip-path="url(#b)" fill="#0F8AD3" points="121,48 121,25.7 173.3,-0.2 159.4,26.1 121.3,46.8"/><polygon clip-path="url(#b)" fill="#095886" points="121,64.9 121,45.5 173.4,14.7 160.2,37.5"/><g opacity=".7"><defs><polygon id="c" opacity=".7" points="121,0.9 82,37.5 121,64.9"/></defs><clipPath id="d"><use xlink:href="#c" overflow="visible"/></clipPath><polygon clip-path="url(#d)" fill="#3FA9F5" points="121.8,26 121.9,-1.1 104.5,1.2 84,8"/><polyline clip-path="url(#d)" fill="#0F8AD3" points="121,48 121,25.7 69.5,-0.2 83.8,26.1 121.3,46.8"/><polygon clip-path="url(#d)" fill="#095886" points="121,64.9 121,45.5 69.4,14.7 82.2,37.5"/></g><linearGradient id="e" gradientUnits="userSpaceOnUse" x1="124.918" y1="3.788" x2="101.718" y2="50.987"><stop offset="0" stop-color="#fff"/><stop offset=".701" stop-color="#fff" stop-opacity="0"/></linearGradient><polygon opacity=".71" fill="url(#e)" points="121,0.9 82.2,37.5 121,64.9"/><linearGradient id="f" gradientUnits="userSpaceOnUse" x1="117.612" y1="3.079" x2="140.812" y2="51.879"><stop offset="0" stop-color="#fff"/><stop offset=".701" stop-color="#fff" stop-opacity="0"/></linearGradient><polygon opacity=".71" fill="url(#f)" points="121,0.9 160,37.5 121,64.9"/><linearGradient id="g" gradientUnits="userSpaceOnUse" x1="124.918" y1="3.788" x2="101.718" y2="50.987"><stop offset="0" stop-color="#fff"/><stop offset=".5" stop-color="#fff" stop-opacity="0"/></linearGradient><polygon opacity=".68" fill="url(#g)" points="121,0.9 82.2,37.5 121,64.9"/><linearGradient id="h" gradientUnits="userSpaceOnUse" x1="117.612" y1="3.079" x2="140.812" y2="51.879"><stop offset="0" stop-color="#fff"/><stop offset=".5" stop-color="#fff" stop-opacity="0"/></linearGradient><polygon opacity=".68" fill="url(#h)" points="121,0.9 160,37.5 121,64.9"/></g><g fill-rule="evenodd" clip-rule="evenodd" fill="#0E82C6"><path d="M100 107.3c0 5.4-1.9 10.7-8.1 10.7-6 0-8-5.2-8-10.7v-16.7h-6.4v16.7c0 8.5 3.9 16.3 14.4 16.3 10.1 0 14.4-7.3 14.4-16.3v-16.7h-6.3v16.7zM65.6 107.1c0-8.3-6.2-16.7-15.5-16.7-9 0-15.7 7.9-15.7 16.6 0 8.4 6.3 16.6 15.6 16.6 2.2 0 4.3-.5 6.2-1.3l-4.1-4.6c-.6.2-1.3.2-2 .2-5.8 0-9.2-5.3-9.2-11 0-5.4 3.3-11 9.2-11 5.7 0 9.2 5.3 9.2 11 0 2.3-.6 4.6-1.7 6.6l-2-2.3h-6.1l3.5 3.9 7.4 8.3h6.1l-4.7-5.2c2.3-3 3.8-7 3.8-11.1z"/><polygon points="7.3,109.2 21.2,109.2 21.2,104.1 7.3,104.1 7.3,96.2 23.3,96.2 23.3,90.6 0.9,90.6 0.9,123.4 23.8,123.4 23.8,117.8 7.3,117.8"/><path d="M185.1 90.6l-13 32.8h6.8l3-8.2h11.5l3 8.2h6.8l-12.9-32.8h-5.2zm2.6 6.8l4.2 12.2h-8.5l4.3-12.2zM233.2 111c3.6-1.5 5.9-5.4 5.9-9.6 0-5.4-4.4-10.9-10.5-10.9h-14.6v32.8h6.4v-11h6.3l6.9 11h7.2l-7.6-12.3zm-4.7-4.2h-8v-10.6h7.7c2.3 0 4.4 2.3 4.4 5.3.1 2.9-1.7 5.3-4.1 5.3z"/><polygon points="147.1,90.6 140.7,90.6 140.7,123.4 163.9,123.4 163.9,117.8 147.1,117.8"/><rect x="120.1" y="90.6" width="6.4" height="32.8"/><rect x="5.5" y="103.9" width="15.7" height="5.6"/></g></g></g></svg>